<mxfile host="app.diagrams.net" modified="2021-10-22T15:47:55.659Z" agent="5.0 (Windows)" etag="e7CPY4dvab03Va0qTIvl" version="15.5.5" type="github">
  <diagram id="C5RBs43oDa-KdzZeNtuy" name="Page-1">
    <mxGraphModel dx="1422" dy="780" grid="1" gridSize="10" guides="1" tooltips="1" connect="1" arrows="1" fold="1" page="1" pageScale="1" pageWidth="827" pageHeight="1169" math="0" shadow="0">
      <root>
        <mxCell id="WIyWlLk6GJQsqaUBKTNV-0" />
        <mxCell id="WIyWlLk6GJQsqaUBKTNV-1" parent="WIyWlLk6GJQsqaUBKTNV-0" />
        <mxCell id="eceDS9ZoPQvHZWP0u--4-34" value="&lt;br&gt;&lt;br&gt;&lt;div&gt;&lt;br&gt;&lt;/div&gt;&lt;div&gt;&lt;br&gt;&lt;/div&gt;&lt;div&gt;&lt;br&gt;&lt;/div&gt;&lt;div&gt;&lt;br&gt;&lt;/div&gt;&lt;div&gt;&lt;br&gt;&lt;/div&gt;&lt;div&gt;&lt;br&gt;&lt;/div&gt;&lt;div&gt;&lt;br&gt;&lt;/div&gt;&lt;div&gt;&lt;br&gt;&lt;/div&gt;&lt;div&gt;&lt;br&gt;&lt;/div&gt;&lt;div&gt;&lt;br&gt;&lt;/div&gt;&lt;div&gt;&lt;br&gt;&lt;/div&gt;&lt;div&gt;&lt;br&gt;&lt;/div&gt;&lt;div&gt;&lt;br&gt;&lt;/div&gt;&lt;div&gt;&lt;br&gt;&lt;/div&gt;&lt;div&gt;&lt;br&gt;&lt;/div&gt;&lt;div&gt;&lt;br&gt;&lt;/div&gt;&lt;div&gt;&lt;br&gt;Problem&lt;/div&gt;" style="rounded=1;whiteSpace=wrap;html=1;" parent="WIyWlLk6GJQsqaUBKTNV-1" vertex="1">
          <mxGeometry x="314" y="380" width="510" height="300" as="geometry" />
        </mxCell>
        <mxCell id="eceDS9ZoPQvHZWP0u--4-1" value="" style="edgeStyle=orthogonalEdgeStyle;rounded=0;orthogonalLoop=1;jettySize=auto;html=1;" parent="WIyWlLk6GJQsqaUBKTNV-1" source="WIyWlLk6GJQsqaUBKTNV-3" target="eceDS9ZoPQvHZWP0u--4-0" edge="1">
          <mxGeometry relative="1" as="geometry" />
        </mxCell>
        <mxCell id="WIyWlLk6GJQsqaUBKTNV-3" value="&lt;div&gt;Greeting&lt;/div&gt;" style="rounded=1;whiteSpace=wrap;html=1;fontSize=12;glass=0;strokeWidth=1;shadow=0;" parent="WIyWlLk6GJQsqaUBKTNV-1" vertex="1">
          <mxGeometry x="160" y="80" width="120" height="40" as="geometry" />
        </mxCell>
        <mxCell id="eceDS9ZoPQvHZWP0u--4-5" value="" style="edgeStyle=orthogonalEdgeStyle;rounded=0;orthogonalLoop=1;jettySize=auto;html=1;" parent="WIyWlLk6GJQsqaUBKTNV-1" source="eceDS9ZoPQvHZWP0u--4-0" target="eceDS9ZoPQvHZWP0u--4-4" edge="1">
          <mxGeometry relative="1" as="geometry" />
        </mxCell>
        <mxCell id="eceDS9ZoPQvHZWP0u--4-8" value="Operation recognized" style="edgeLabel;html=1;align=center;verticalAlign=middle;resizable=0;points=[];" parent="eceDS9ZoPQvHZWP0u--4-5" vertex="1" connectable="0">
          <mxGeometry x="0.3167" relative="1" as="geometry">
            <mxPoint x="60" y="-6" as="offset" />
          </mxGeometry>
        </mxCell>
        <mxCell id="eceDS9ZoPQvHZWP0u--4-0" value="GetOperation" style="whiteSpace=wrap;html=1;rounded=1;shadow=0;strokeWidth=1;glass=0;" parent="WIyWlLk6GJQsqaUBKTNV-1" vertex="1">
          <mxGeometry x="160" y="160" width="120" height="60" as="geometry" />
        </mxCell>
        <mxCell id="eceDS9ZoPQvHZWP0u--4-2" style="edgeStyle=orthogonalEdgeStyle;rounded=0;orthogonalLoop=1;jettySize=auto;html=1;" parent="WIyWlLk6GJQsqaUBKTNV-1" source="eceDS9ZoPQvHZWP0u--4-0" target="eceDS9ZoPQvHZWP0u--4-0" edge="1">
          <mxGeometry relative="1" as="geometry" />
        </mxCell>
        <mxCell id="eceDS9ZoPQvHZWP0u--4-3" value="Operation not recognized" style="edgeLabel;html=1;align=center;verticalAlign=middle;resizable=0;points=[];" parent="eceDS9ZoPQvHZWP0u--4-2" vertex="1" connectable="0">
          <mxGeometry x="0.3333" y="1" relative="1" as="geometry">
            <mxPoint x="70" y="-11" as="offset" />
          </mxGeometry>
        </mxCell>
        <mxCell id="eceDS9ZoPQvHZWP0u--4-7" value="" style="edgeStyle=orthogonalEdgeStyle;rounded=0;orthogonalLoop=1;jettySize=auto;html=1;" parent="WIyWlLk6GJQsqaUBKTNV-1" source="eceDS9ZoPQvHZWP0u--4-4" target="eceDS9ZoPQvHZWP0u--4-6" edge="1">
          <mxGeometry relative="1" as="geometry" />
        </mxCell>
        <mxCell id="eceDS9ZoPQvHZWP0u--4-4" value="BriefExplanation" style="whiteSpace=wrap;html=1;rounded=1;shadow=0;strokeWidth=1;glass=0;" parent="WIyWlLk6GJQsqaUBKTNV-1" vertex="1">
          <mxGeometry x="160" y="260" width="120" height="60" as="geometry" />
        </mxCell>
        <mxCell id="eceDS9ZoPQvHZWP0u--4-11" value="" style="edgeStyle=orthogonalEdgeStyle;rounded=0;orthogonalLoop=1;jettySize=auto;html=1;" parent="WIyWlLk6GJQsqaUBKTNV-1" source="eceDS9ZoPQvHZWP0u--4-6" target="eceDS9ZoPQvHZWP0u--4-10" edge="1">
          <mxGeometry relative="1" as="geometry">
            <Array as="points">
              <mxPoint x="600" y="290" />
              <mxPoint x="600" y="290" />
            </Array>
          </mxGeometry>
        </mxCell>
        <mxCell id="eceDS9ZoPQvHZWP0u--4-12" value="Confused" style="edgeLabel;html=1;align=center;verticalAlign=middle;resizable=0;points=[];" parent="eceDS9ZoPQvHZWP0u--4-11" vertex="1" connectable="0">
          <mxGeometry x="0.2" relative="1" as="geometry">
            <mxPoint x="-42" y="-10" as="offset" />
          </mxGeometry>
        </mxCell>
        <mxCell id="eceDS9ZoPQvHZWP0u--4-15" value="" style="edgeStyle=orthogonalEdgeStyle;rounded=0;orthogonalLoop=1;jettySize=auto;html=1;" parent="WIyWlLk6GJQsqaUBKTNV-1" source="eceDS9ZoPQvHZWP0u--4-6" target="eceDS9ZoPQvHZWP0u--4-14" edge="1">
          <mxGeometry relative="1" as="geometry">
            <Array as="points">
              <mxPoint x="405" y="410" />
              <mxPoint x="405" y="410" />
            </Array>
          </mxGeometry>
        </mxCell>
        <mxCell id="eceDS9ZoPQvHZWP0u--4-16" value="Confident" style="edgeLabel;html=1;align=center;verticalAlign=middle;resizable=0;points=[];" parent="eceDS9ZoPQvHZWP0u--4-15" vertex="1" connectable="0">
          <mxGeometry x="-0.3286" y="-2" relative="1" as="geometry">
            <mxPoint x="37" y="-40" as="offset" />
          </mxGeometry>
        </mxCell>
        <mxCell id="eceDS9ZoPQvHZWP0u--4-6" value="&lt;div&gt;GaugeBriefExplanation&lt;/div&gt;&lt;div&gt;(emotion recognition)&lt;br&gt;&lt;/div&gt;" style="whiteSpace=wrap;html=1;rounded=1;shadow=0;strokeWidth=1;glass=0;" parent="WIyWlLk6GJQsqaUBKTNV-1" vertex="1">
          <mxGeometry x="340" y="260" width="130" height="60" as="geometry" />
        </mxCell>
        <mxCell id="eceDS9ZoPQvHZWP0u--4-18" value="" style="edgeStyle=orthogonalEdgeStyle;rounded=0;orthogonalLoop=1;jettySize=auto;html=1;" parent="WIyWlLk6GJQsqaUBKTNV-1" source="eceDS9ZoPQvHZWP0u--4-10" target="eceDS9ZoPQvHZWP0u--4-17" edge="1">
          <mxGeometry relative="1" as="geometry" />
        </mxCell>
        <mxCell id="eceDS9ZoPQvHZWP0u--4-10" value="DetailedExplanation" style="whiteSpace=wrap;html=1;rounded=1;shadow=0;strokeWidth=1;glass=0;" parent="WIyWlLk6GJQsqaUBKTNV-1" vertex="1">
          <mxGeometry x="590" y="260" width="120" height="60" as="geometry" />
        </mxCell>
        <mxCell id="eceDS9ZoPQvHZWP0u--4-27" value="" style="edgeStyle=orthogonalEdgeStyle;rounded=0;orthogonalLoop=1;jettySize=auto;html=1;" parent="WIyWlLk6GJQsqaUBKTNV-1" source="eceDS9ZoPQvHZWP0u--4-14" target="eceDS9ZoPQvHZWP0u--4-26" edge="1">
          <mxGeometry relative="1" as="geometry" />
        </mxCell>
        <mxCell id="eceDS9ZoPQvHZWP0u--4-28" value="Fail" style="edgeLabel;html=1;align=center;verticalAlign=middle;resizable=0;points=[];" parent="eceDS9ZoPQvHZWP0u--4-27" vertex="1" connectable="0">
          <mxGeometry x="0.4175" y="1" relative="1" as="geometry">
            <mxPoint x="-68" y="9" as="offset" />
          </mxGeometry>
        </mxCell>
        <mxCell id="eceDS9ZoPQvHZWP0u--4-36" style="edgeStyle=orthogonalEdgeStyle;rounded=0;orthogonalLoop=1;jettySize=auto;html=1;" parent="WIyWlLk6GJQsqaUBKTNV-1" source="eceDS9ZoPQvHZWP0u--4-14" target="eceDS9ZoPQvHZWP0u--4-25" edge="1">
          <mxGeometry relative="1" as="geometry" />
        </mxCell>
        <mxCell id="eceDS9ZoPQvHZWP0u--4-37" value="Pass" style="edgeLabel;html=1;align=center;verticalAlign=middle;resizable=0;points=[];" parent="eceDS9ZoPQvHZWP0u--4-36" vertex="1" connectable="0">
          <mxGeometry x="-0.792" relative="1" as="geometry">
            <mxPoint x="16" y="5" as="offset" />
          </mxGeometry>
        </mxCell>
        <mxCell id="eceDS9ZoPQvHZWP0u--4-14" value="MediumProblem" style="whiteSpace=wrap;html=1;rounded=1;shadow=0;strokeWidth=1;glass=0;" parent="WIyWlLk6GJQsqaUBKTNV-1" vertex="1">
          <mxGeometry x="349" y="470" width="130" height="60" as="geometry" />
        </mxCell>
        <mxCell id="eceDS9ZoPQvHZWP0u--4-20" style="edgeStyle=orthogonalEdgeStyle;rounded=0;orthogonalLoop=1;jettySize=auto;html=1;" parent="WIyWlLk6GJQsqaUBKTNV-1" source="eceDS9ZoPQvHZWP0u--4-17" target="eceDS9ZoPQvHZWP0u--4-14" edge="1">
          <mxGeometry relative="1" as="geometry">
            <Array as="points">
              <mxPoint x="850" y="350" />
              <mxPoint x="414" y="350" />
            </Array>
          </mxGeometry>
        </mxCell>
        <mxCell id="eceDS9ZoPQvHZWP0u--4-23" value="&lt;div&gt;Confident&lt;/div&gt;" style="edgeLabel;html=1;align=center;verticalAlign=middle;resizable=0;points=[];" parent="eceDS9ZoPQvHZWP0u--4-20" vertex="1" connectable="0">
          <mxGeometry x="-0.1857" y="2" relative="1" as="geometry">
            <mxPoint x="216" y="-12" as="offset" />
          </mxGeometry>
        </mxCell>
        <mxCell id="eceDS9ZoPQvHZWP0u--4-21" style="edgeStyle=orthogonalEdgeStyle;rounded=0;orthogonalLoop=1;jettySize=auto;html=1;" parent="WIyWlLk6GJQsqaUBKTNV-1" source="eceDS9ZoPQvHZWP0u--4-17" target="eceDS9ZoPQvHZWP0u--4-10" edge="1">
          <mxGeometry relative="1" as="geometry">
            <Array as="points">
              <mxPoint x="850" y="230" />
              <mxPoint x="650" y="230" />
            </Array>
          </mxGeometry>
        </mxCell>
        <mxCell id="eceDS9ZoPQvHZWP0u--4-22" value="Confused" style="edgeLabel;html=1;align=center;verticalAlign=middle;resizable=0;points=[];" parent="eceDS9ZoPQvHZWP0u--4-21" vertex="1" connectable="0">
          <mxGeometry x="-0.1623" y="-2" relative="1" as="geometry">
            <mxPoint x="109" y="12" as="offset" />
          </mxGeometry>
        </mxCell>
        <mxCell id="eceDS9ZoPQvHZWP0u--4-67" value="" style="edgeStyle=orthogonalEdgeStyle;rounded=0;orthogonalLoop=1;jettySize=auto;html=1;dashed=1;" parent="WIyWlLk6GJQsqaUBKTNV-1" source="eceDS9ZoPQvHZWP0u--4-17" target="eceDS9ZoPQvHZWP0u--4-66" edge="1">
          <mxGeometry relative="1" as="geometry" />
        </mxCell>
        <mxCell id="eceDS9ZoPQvHZWP0u--4-69" value="if count&amp;gt;=4" style="edgeLabel;html=1;align=center;verticalAlign=middle;resizable=0;points=[];" parent="eceDS9ZoPQvHZWP0u--4-67" vertex="1" connectable="0">
          <mxGeometry x="-0.9697" relative="1" as="geometry">
            <mxPoint x="20" y="10" as="offset" />
          </mxGeometry>
        </mxCell>
        <mxCell id="eceDS9ZoPQvHZWP0u--4-17" value="&lt;div&gt;GaugeDetailedExplanation (emotion recognition)&lt;/div&gt;" style="whiteSpace=wrap;html=1;rounded=1;shadow=0;strokeWidth=1;glass=0;" parent="WIyWlLk6GJQsqaUBKTNV-1" vertex="1">
          <mxGeometry x="770" y="260" width="160" height="60" as="geometry" />
        </mxCell>
        <mxCell id="eceDS9ZoPQvHZWP0u--4-30" style="edgeStyle=orthogonalEdgeStyle;rounded=0;orthogonalLoop=1;jettySize=auto;html=1;" parent="WIyWlLk6GJQsqaUBKTNV-1" source="eceDS9ZoPQvHZWP0u--4-24" target="eceDS9ZoPQvHZWP0u--4-10" edge="1">
          <mxGeometry relative="1" as="geometry">
            <Array as="points">
              <mxPoint x="990" y="410" />
              <mxPoint x="990" y="190" />
              <mxPoint x="640" y="190" />
            </Array>
          </mxGeometry>
        </mxCell>
        <mxCell id="eceDS9ZoPQvHZWP0u--4-31" value="Fail" style="edgeLabel;html=1;align=center;verticalAlign=middle;resizable=0;points=[];" parent="eceDS9ZoPQvHZWP0u--4-30" vertex="1" connectable="0">
          <mxGeometry x="-0.672" relative="1" as="geometry">
            <mxPoint x="-110" y="10" as="offset" />
          </mxGeometry>
        </mxCell>
        <mxCell id="eceDS9ZoPQvHZWP0u--4-35" value="EasyProblem failed" style="edgeLabel;html=1;align=center;verticalAlign=middle;resizable=0;points=[];" parent="eceDS9ZoPQvHZWP0u--4-30" vertex="1" connectable="0">
          <mxGeometry x="-0.5935" relative="1" as="geometry">
            <mxPoint x="-15" y="10" as="offset" />
          </mxGeometry>
        </mxCell>
        <mxCell id="eceDS9ZoPQvHZWP0u--4-32" style="edgeStyle=orthogonalEdgeStyle;rounded=0;orthogonalLoop=1;jettySize=auto;html=1;" parent="WIyWlLk6GJQsqaUBKTNV-1" source="eceDS9ZoPQvHZWP0u--4-24" target="eceDS9ZoPQvHZWP0u--4-14" edge="1">
          <mxGeometry relative="1" as="geometry">
            <Array as="points">
              <mxPoint x="430" y="430" />
            </Array>
          </mxGeometry>
        </mxCell>
        <mxCell id="eceDS9ZoPQvHZWP0u--4-33" value="&lt;div&gt;Pass&lt;/div&gt;" style="edgeLabel;html=1;align=center;verticalAlign=middle;resizable=0;points=[];" parent="eceDS9ZoPQvHZWP0u--4-32" vertex="1" connectable="0">
          <mxGeometry x="-0.0213" y="3" relative="1" as="geometry">
            <mxPoint x="85" y="-13" as="offset" />
          </mxGeometry>
        </mxCell>
        <mxCell id="eceDS9ZoPQvHZWP0u--4-24" value="&lt;div&gt;EasyProblem&lt;/div&gt;" style="whiteSpace=wrap;html=1;rounded=1;shadow=0;strokeWidth=1;glass=0;" parent="WIyWlLk6GJQsqaUBKTNV-1" vertex="1">
          <mxGeometry x="615" y="400" width="130" height="60" as="geometry" />
        </mxCell>
        <mxCell id="eceDS9ZoPQvHZWP0u--4-44" style="edgeStyle=orthogonalEdgeStyle;rounded=0;orthogonalLoop=1;jettySize=auto;html=1;" parent="WIyWlLk6GJQsqaUBKTNV-1" source="eceDS9ZoPQvHZWP0u--4-25" target="eceDS9ZoPQvHZWP0u--4-38" edge="1">
          <mxGeometry relative="1" as="geometry">
            <Array as="points">
              <mxPoint x="414" y="640" />
              <mxPoint x="680" y="640" />
            </Array>
          </mxGeometry>
        </mxCell>
        <mxCell id="eceDS9ZoPQvHZWP0u--4-45" value="Fail" style="edgeLabel;html=1;align=center;verticalAlign=middle;resizable=0;points=[];" parent="eceDS9ZoPQvHZWP0u--4-44" vertex="1" connectable="0">
          <mxGeometry x="-0.9057" y="-1" relative="1" as="geometry">
            <mxPoint x="17" y="-6" as="offset" />
          </mxGeometry>
        </mxCell>
        <mxCell id="eceDS9ZoPQvHZWP0u--4-46" style="edgeStyle=orthogonalEdgeStyle;rounded=0;orthogonalLoop=1;jettySize=auto;html=1;" parent="WIyWlLk6GJQsqaUBKTNV-1" source="eceDS9ZoPQvHZWP0u--4-25" target="eceDS9ZoPQvHZWP0u--4-47" edge="1">
          <mxGeometry relative="1" as="geometry">
            <mxPoint x="414" y="730" as="targetPoint" />
          </mxGeometry>
        </mxCell>
        <mxCell id="eceDS9ZoPQvHZWP0u--4-25" value="DifficultProblem" style="whiteSpace=wrap;html=1;rounded=1;shadow=0;strokeWidth=1;glass=0;" parent="WIyWlLk6GJQsqaUBKTNV-1" vertex="1">
          <mxGeometry x="349" y="560" width="130" height="60" as="geometry" />
        </mxCell>
        <mxCell id="eceDS9ZoPQvHZWP0u--4-29" style="edgeStyle=orthogonalEdgeStyle;rounded=0;orthogonalLoop=1;jettySize=auto;html=1;" parent="WIyWlLk6GJQsqaUBKTNV-1" source="eceDS9ZoPQvHZWP0u--4-26" target="eceDS9ZoPQvHZWP0u--4-24" edge="1">
          <mxGeometry relative="1" as="geometry">
            <Array as="points">
              <mxPoint x="770" y="500" />
              <mxPoint x="770" y="440" />
            </Array>
          </mxGeometry>
        </mxCell>
        <mxCell id="eceDS9ZoPQvHZWP0u--4-39" value="Confused" style="edgeLabel;html=1;align=center;verticalAlign=middle;resizable=0;points=[];" parent="eceDS9ZoPQvHZWP0u--4-29" vertex="1" connectable="0">
          <mxGeometry x="-0.556" y="-1" relative="1" as="geometry">
            <mxPoint x="19" y="17" as="offset" />
          </mxGeometry>
        </mxCell>
        <mxCell id="eceDS9ZoPQvHZWP0u--4-41" style="edgeStyle=orthogonalEdgeStyle;rounded=0;orthogonalLoop=1;jettySize=auto;html=1;" parent="WIyWlLk6GJQsqaUBKTNV-1" source="eceDS9ZoPQvHZWP0u--4-26" target="eceDS9ZoPQvHZWP0u--4-25" edge="1">
          <mxGeometry relative="1" as="geometry">
            <Array as="points">
              <mxPoint x="680" y="550" />
              <mxPoint x="510" y="550" />
              <mxPoint x="510" y="590" />
            </Array>
          </mxGeometry>
        </mxCell>
        <mxCell id="eceDS9ZoPQvHZWP0u--4-42" value="&lt;div&gt;Confident&lt;/div&gt;" style="edgeLabel;html=1;align=center;verticalAlign=middle;resizable=0;points=[];" parent="eceDS9ZoPQvHZWP0u--4-41" vertex="1" connectable="0">
          <mxGeometry x="-0.5387" relative="1" as="geometry">
            <mxPoint x="70" y="-10" as="offset" />
          </mxGeometry>
        </mxCell>
        <mxCell id="eceDS9ZoPQvHZWP0u--4-26" value="MediumProblemSolution (emotion recognition)" style="whiteSpace=wrap;html=1;rounded=1;shadow=0;strokeWidth=1;glass=0;" parent="WIyWlLk6GJQsqaUBKTNV-1" vertex="1">
          <mxGeometry x="605" y="470" width="150" height="60" as="geometry" />
        </mxCell>
        <mxCell id="5y0CtwBzBkdrGnppNWci-0" style="edgeStyle=orthogonalEdgeStyle;rounded=0;orthogonalLoop=1;jettySize=auto;html=1;exitX=0;exitY=0.5;exitDx=0;exitDy=0;entryX=1;entryY=0.75;entryDx=0;entryDy=0;" edge="1" parent="WIyWlLk6GJQsqaUBKTNV-1" source="eceDS9ZoPQvHZWP0u--4-38" target="eceDS9ZoPQvHZWP0u--4-14">
          <mxGeometry relative="1" as="geometry" />
        </mxCell>
        <mxCell id="eceDS9ZoPQvHZWP0u--4-38" value="DifficultProblemSolution" style="whiteSpace=wrap;html=1;rounded=1;shadow=0;strokeWidth=1;glass=0;" parent="WIyWlLk6GJQsqaUBKTNV-1" vertex="1">
          <mxGeometry x="605" y="555" width="150" height="60" as="geometry" />
        </mxCell>
        <mxCell id="eceDS9ZoPQvHZWP0u--4-59" value="" style="edgeStyle=orthogonalEdgeStyle;rounded=0;orthogonalLoop=1;jettySize=auto;html=1;" parent="WIyWlLk6GJQsqaUBKTNV-1" source="eceDS9ZoPQvHZWP0u--4-47" target="eceDS9ZoPQvHZWP0u--4-58" edge="1">
          <mxGeometry relative="1" as="geometry">
            <Array as="points">
              <mxPoint x="414" y="780" />
              <mxPoint x="414" y="780" />
            </Array>
          </mxGeometry>
        </mxCell>
        <mxCell id="eceDS9ZoPQvHZWP0u--4-60" value="No" style="edgeLabel;html=1;align=center;verticalAlign=middle;resizable=0;points=[];" parent="eceDS9ZoPQvHZWP0u--4-59" vertex="1" connectable="0">
          <mxGeometry x="0.7143" y="-1" relative="1" as="geometry">
            <mxPoint x="17" y="-14" as="offset" />
          </mxGeometry>
        </mxCell>
        <mxCell id="eceDS9ZoPQvHZWP0u--4-75" value="" style="edgeStyle=orthogonalEdgeStyle;rounded=0;orthogonalLoop=1;jettySize=auto;html=1;fontSize=8;" parent="WIyWlLk6GJQsqaUBKTNV-1" source="eceDS9ZoPQvHZWP0u--4-47" target="eceDS9ZoPQvHZWP0u--4-74" edge="1">
          <mxGeometry relative="1" as="geometry" />
        </mxCell>
        <mxCell id="eceDS9ZoPQvHZWP0u--4-77" value="&lt;font style=&quot;font-size: 12px&quot;&gt;Yes&lt;/font&gt;" style="edgeLabel;html=1;align=center;verticalAlign=middle;resizable=0;points=[];fontSize=8;" parent="eceDS9ZoPQvHZWP0u--4-75" vertex="1" connectable="0">
          <mxGeometry x="-0.2138" y="3" relative="1" as="geometry">
            <mxPoint x="3" y="12" as="offset" />
          </mxGeometry>
        </mxCell>
        <mxCell id="eceDS9ZoPQvHZWP0u--4-47" value="Time left?" style="rhombus;whiteSpace=wrap;html=1;" parent="WIyWlLk6GJQsqaUBKTNV-1" vertex="1">
          <mxGeometry x="374" y="700" width="80" height="50" as="geometry" />
        </mxCell>
        <mxCell id="eceDS9ZoPQvHZWP0u--4-53" value="&lt;font style=&quot;font-size: 8px&quot;&gt;Changes depending on entry path&lt;/font&gt;" style="shape=document;whiteSpace=wrap;html=1;boundedLbl=1;" parent="WIyWlLk6GJQsqaUBKTNV-1" vertex="1">
          <mxGeometry x="110" y="130" width="70" height="60" as="geometry" />
        </mxCell>
        <mxCell id="eceDS9ZoPQvHZWP0u--4-58" value="GiveHomework" style="whiteSpace=wrap;html=1;rounded=1;" parent="WIyWlLk6GJQsqaUBKTNV-1" vertex="1">
          <mxGeometry x="354" y="790" width="120" height="60" as="geometry" />
        </mxCell>
        <mxCell id="eceDS9ZoPQvHZWP0u--4-68" style="edgeStyle=orthogonalEdgeStyle;rounded=0;orthogonalLoop=1;jettySize=auto;html=1;" parent="WIyWlLk6GJQsqaUBKTNV-1" source="eceDS9ZoPQvHZWP0u--4-66" target="eceDS9ZoPQvHZWP0u--4-58" edge="1">
          <mxGeometry relative="1" as="geometry" />
        </mxCell>
        <mxCell id="eceDS9ZoPQvHZWP0u--4-66" value="Encouragement (emotion recognition)" style="whiteSpace=wrap;html=1;rounded=1;shadow=0;strokeWidth=1;glass=0;" parent="WIyWlLk6GJQsqaUBKTNV-1" vertex="1">
          <mxGeometry x="990" y="790" width="120" height="60" as="geometry" />
        </mxCell>
        <mxCell id="eceDS9ZoPQvHZWP0u--4-70" style="edgeStyle=orthogonalEdgeStyle;rounded=0;orthogonalLoop=1;jettySize=auto;html=1;" parent="WIyWlLk6GJQsqaUBKTNV-1" source="eceDS9ZoPQvHZWP0u--4-66" target="eceDS9ZoPQvHZWP0u--4-66" edge="1">
          <mxGeometry relative="1" as="geometry" />
        </mxCell>
        <mxCell id="eceDS9ZoPQvHZWP0u--4-71" value="Not happy" style="edgeLabel;html=1;align=center;verticalAlign=middle;resizable=0;points=[];" parent="eceDS9ZoPQvHZWP0u--4-70" vertex="1" connectable="0">
          <mxGeometry x="0.3885" relative="1" as="geometry">
            <mxPoint x="31" y="-10" as="offset" />
          </mxGeometry>
        </mxCell>
        <mxCell id="eceDS9ZoPQvHZWP0u--4-76" style="edgeStyle=orthogonalEdgeStyle;rounded=0;orthogonalLoop=1;jettySize=auto;html=1;fontSize=8;" parent="WIyWlLk6GJQsqaUBKTNV-1" source="eceDS9ZoPQvHZWP0u--4-74" target="eceDS9ZoPQvHZWP0u--4-0" edge="1">
          <mxGeometry relative="1" as="geometry">
            <Array as="points">
              <mxPoint x="120" y="725" />
              <mxPoint x="120" y="190" />
            </Array>
          </mxGeometry>
        </mxCell>
        <mxCell id="eceDS9ZoPQvHZWP0u--4-78" value="Fine" style="edgeLabel;html=1;align=center;verticalAlign=middle;resizable=0;points=[];fontSize=12;" parent="eceDS9ZoPQvHZWP0u--4-76" vertex="1" connectable="0">
          <mxGeometry x="-0.9061" y="-3" relative="1" as="geometry">
            <mxPoint x="7" y="18" as="offset" />
          </mxGeometry>
        </mxCell>
        <mxCell id="5y0CtwBzBkdrGnppNWci-1" style="edgeStyle=orthogonalEdgeStyle;rounded=0;orthogonalLoop=1;jettySize=auto;html=1;entryX=0;entryY=0.5;entryDx=0;entryDy=0;" edge="1" parent="WIyWlLk6GJQsqaUBKTNV-1" source="eceDS9ZoPQvHZWP0u--4-74" target="eceDS9ZoPQvHZWP0u--4-14">
          <mxGeometry relative="1" as="geometry">
            <Array as="points">
              <mxPoint x="280" y="500" />
            </Array>
          </mxGeometry>
        </mxCell>
        <mxCell id="5y0CtwBzBkdrGnppNWci-2" value="Doesn&#39;t want to learn" style="edgeLabel;html=1;align=center;verticalAlign=middle;resizable=0;points=[];" vertex="1" connectable="0" parent="5y0CtwBzBkdrGnppNWci-1">
          <mxGeometry x="0.1439" y="2" relative="1" as="geometry">
            <mxPoint x="-58" y="41" as="offset" />
          </mxGeometry>
        </mxCell>
        <mxCell id="eceDS9ZoPQvHZWP0u--4-74" value="EvaluateConditions (emotion recognition)" style="whiteSpace=wrap;html=1;rounded=1;" parent="WIyWlLk6GJQsqaUBKTNV-1" vertex="1">
          <mxGeometry x="194" y="695" width="120" height="60" as="geometry" />
        </mxCell>
      </root>
    </mxGraphModel>
  </diagram>
</mxfile>
